<?xml version="1.0" encoding="utf-8"?>
<!-- Generator: Adobe Illustrator 16.0.0, SVG Export Plug-In . SVG Version: 6.00 Build 0)  -->
<!DOCTYPE svg PUBLIC "-//W3C//DTD SVG 1.1//EN" "http://www.w3.org/Graphics/SVG/1.1/DTD/svg11.dtd">
<svg version="1.1" id="Layer_1" xmlns="http://www.w3.org/2000/svg" xmlns:xlink="http://www.w3.org/1999/xlink" x="0px" y="0px"
	 width="500px" height="500px" viewBox="0 0 500 500" enable-background="new 0 0 500 500" xml:space="preserve">
<g>
	<g>
		<path fill="#808080" d="M35.026,152.814c0,1.131-0.565,1.694-1.693,1.694H22.565c-1.13,0-1.693-0.563-1.693-1.694V71.521
			c0-1.128,0.563-1.693,1.693-1.693h10.767c1.128,0,1.693,0.565,1.693,1.693V152.814z"/>
		<path fill="#808080" d="M75.55,142.048v10.767c0,1.131-0.565,1.694-1.694,1.694H47.605c-1.13,0-1.693-0.563-1.693-1.694V71.521
			c0-1.128,0.563-1.693,1.693-1.693h26.251c1.128,0,1.694,0.565,1.694,1.693v10.767c0,1.13-0.565,1.693-1.694,1.693H60.066v17.42
			h11.977c1.128,0,1.693,0.565,1.693,1.693v10.767c0,1.129-0.565,1.694-1.693,1.694H60.066v24.798h13.791
			C74.985,140.354,75.55,140.919,75.55,142.048z"/>
		<path fill="#808080" d="M115.47,142.048v10.767c0,1.131-0.565,1.694-1.694,1.694H87.525c-1.13,0-1.693-0.563-1.693-1.694V71.521
			c0-1.128,0.563-1.693,1.693-1.693h26.251c1.128,0,1.694,0.565,1.694,1.693v10.767c0,1.13-0.565,1.693-1.694,1.693H99.985v17.42
			h11.977c1.128,0,1.693,0.565,1.693,1.693v10.767c0,1.129-0.565,1.694-1.693,1.694H99.985v24.798h13.791
			C114.904,140.354,115.47,140.919,115.47,142.048z"/>
		<path fill="#808080" d="M155.389,142.048v10.767c0,1.131-0.565,1.694-1.694,1.694h-26.251c-1.13,0-1.694-0.563-1.694-1.694V71.521
			c0-1.128,0.563-1.693,1.694-1.693h26.251c1.128,0,1.694,0.565,1.694,1.693v10.767c0,1.13-0.565,1.693-1.694,1.693h-13.791v17.42
			h11.977c1.128,0,1.694,0.565,1.694,1.693v10.767c0,1.129-0.565,1.694-1.694,1.694h-11.977v24.798h13.791
			C154.824,140.354,155.389,140.919,155.389,142.048z"/>
	</g>
	<g>
		<path fill="#808080" d="M343.753,399.204c-0.243,0.405-0.485,0.786-0.726,1.148c-0.242,0.365-0.484,0.748-0.728,1.151
			c-1.207,1.935-2.218,3.748-3.024,5.442s-1.45,3.186-1.935,4.477c-0.566,1.45-1.05,2.864-1.45,4.233h18.749
			c0.727,0,1.09,0.362,1.09,1.087v11.494c0,0.728-0.363,1.09-1.09,1.09h-31.937c-0.565,0-0.929-0.362-1.089-1.09
			c-0.243-1.529-0.384-3.043-0.422-4.536c-0.043-1.49-0.022-2.843,0.059-4.053c0.08-1.45,0.243-2.823,0.483-4.112
			c0.163-1.532,0.443-2.984,0.847-4.357c0.403-1.368,0.807-2.619,1.21-3.748c0.485-1.291,1.009-2.46,1.572-3.509
			c2.099-3.791,4.074-7.138,5.928-10.04c1.855-2.904,3.51-5.401,4.962-7.5c1.692-2.42,3.265-4.518,4.717-6.292
			c0.403-0.886,0.563-1.733,0.485-2.539c-0.082-0.807-0.082-2.017,0-3.63v-14.274c0-0.807-0.285-1.491-0.848-2.058
			c-0.566-0.562-1.25-0.847-2.057-0.847h-0.968c-0.809,0-1.493,0.285-2.056,0.847c-0.566,0.566-0.847,1.251-0.847,2.058v7.984
			c0,1.128-0.525,1.855-1.573,2.176l-11.009,2.904c-1.049,0.321-1.574-0.08-1.574-1.21v-12.462c0-2.094,0.403-4.069,1.21-5.927
			c0.807-1.854,1.894-3.467,3.267-4.838c1.371-1.371,2.982-2.458,4.84-3.265c1.854-0.807,3.829-1.21,5.927-1.21h4.598
			c2.096,0,4.071,0.403,5.927,1.21c1.856,0.807,3.467,1.894,4.84,3.265c1.371,1.371,2.459,2.984,3.266,4.838
			c0.807,1.857,1.21,3.833,1.21,5.927v7.26v7.137c0,2.502-0.302,4.921-0.907,7.26c-0.604,2.34-1.595,4.559-2.963,6.652
			c-1.21,1.935-2.521,3.915-3.932,5.927C346.393,395.293,345.042,397.268,343.753,399.204z"/>
		<path fill="#808080" d="M400.487,414.931c0,2.098-0.403,4.074-1.21,5.928c-0.807,1.857-1.896,3.469-3.268,4.839
			c-1.372,1.373-2.983,2.461-4.839,3.268c-1.854,0.803-3.83,1.208-5.928,1.208h-4.595c-2.099,0-4.074-0.405-5.928-1.208
			c-1.857-0.807-3.471-1.895-4.84-3.268c-1.372-1.37-2.46-2.981-3.267-4.839c-0.807-1.854-1.21-3.83-1.21-5.928v-55.892
			c0-2.094,0.403-4.069,1.21-5.927c0.807-1.854,1.895-3.467,3.267-4.838c1.369-1.371,2.982-2.458,4.84-3.265
			c1.854-0.807,3.829-1.21,5.928-1.21h4.595c2.098,0,4.074,0.403,5.928,1.21c1.855,0.807,3.467,1.894,4.839,3.265
			c1.371,1.371,2.461,2.984,3.268,4.838c0.807,1.857,1.21,3.833,1.21,5.927V414.931z M386.333,359.646
			c0-0.807-0.283-1.491-0.846-2.058c-0.565-0.562-1.252-0.847-2.057-0.847h-0.97c-0.807,0-1.491,0.285-2.055,0.847
			c-0.564,0.566-0.848,1.251-0.848,2.058v54.68c0,0.807,0.283,1.492,0.848,2.055c0.563,0.566,1.248,0.848,2.055,0.848h0.97
			c0.805,0,1.491-0.281,2.057-0.848c0.563-0.563,0.846-1.248,0.846-2.055V359.646z"/>
		<path fill="#808080" d="M434.601,346.338v81.295c0,1.13-0.566,1.694-1.694,1.694h-10.768c-1.128,0-1.692-0.564-1.692-1.694
			v-60.729c-1.049,0.809-2.358,1.615-3.931,2.42c-1.575,0.809-3.046,1.33-4.416,1.572c-0.564,0.163-1.009,0.082-1.33-0.242
			c-0.405-0.24-0.607-0.644-0.607-1.21v-9.072c0-0.403,0.143-0.766,0.424-1.087c0.283-0.322,0.625-0.526,1.03-0.607
			c1.854-0.725,3.547-1.731,5.08-3.022c1.369-1.047,2.64-2.399,3.81-4.054c1.169-1.651,1.916-3.647,2.24-5.988
			c0.24-0.644,0.685-0.968,1.33-0.968h8.952C434.075,344.808,434.601,345.372,434.601,346.338z"/>
		<path fill="#808080" d="M464.118,343.8c2.095,0,4.07,0.403,5.928,1.21c1.854,0.807,3.467,1.894,4.84,3.265
			c1.368,1.371,2.456,2.984,3.265,4.838c0.805,1.857,1.21,3.833,1.21,5.927v55.892c0,2.098-0.405,4.074-1.21,5.928
			c-0.809,1.857-1.896,3.469-3.265,4.839c-1.373,1.373-2.986,2.461-4.84,3.268c-1.857,0.803-3.833,1.208-5.928,1.208h-4.599
			c-2.098,0-4.074-0.405-5.928-1.208c-1.855-0.807-3.467-1.895-4.839-3.268c-1.371-1.37-2.461-2.981-3.266-4.839
			c-0.807-1.854-1.21-3.83-1.21-5.928v-4.96c0-1.128,0.523-1.855,1.574-2.177l11.008-2.905c1.047-0.321,1.572,0.082,1.572,1.21
			v8.228c0,0.807,0.281,1.492,0.848,2.055c0.562,0.566,1.248,0.848,2.057,0.848h0.966c0.807,0,1.493-0.281,2.058-0.848
			c0.563-0.563,0.847-1.248,0.847-2.055v-17.784c-2.501,1.131-5.122,1.694-7.862,1.694c-1.615,0-3.145-0.199-4.599-0.604
			c-5.646-1.532-8.468-5.485-8.468-11.856v-26.736c0-2.094,0.403-4.069,1.21-5.927c0.805-1.854,1.895-3.467,3.266-4.838
			c1.372-1.371,2.983-2.458,4.839-3.265c1.854-0.807,3.83-1.21,5.928-1.21H464.118z M465.206,359.646
			c0-0.807-0.283-1.491-0.847-2.058c-0.564-0.562-1.251-0.847-2.058-0.847h-0.966c-0.809,0-1.495,0.285-2.057,0.847
			c-0.566,0.566-0.848,1.251-0.848,2.058v22.983c0,1.292,0.242,2.178,0.726,2.662c0.162,0.161,0.423,0.363,0.786,0.605
			c0.362,0.24,0.826,0.362,1.393,0.362h0.966c0.564,0,1.03-0.139,1.394-0.424c0.362-0.28,0.623-0.503,0.786-0.664
			c0.482-0.484,0.725-1.332,0.725-2.542V359.646z"/>
	</g>
	<g>
		<g>
			<linearGradient id="SVGID_1_" gradientUnits="userSpaceOnUse" x1="20.6396" y1="246.875" x2="477.4072" y2="246.875">
				<stop  offset="0" style="stop-color:#F15A24"/>
				<stop  offset="0.2332" style="stop-color:#EC9E83"/>
				<stop  offset="0.4241" style="stop-color:#E8D2CA"/>
				<stop  offset="0.5123" style="stop-color:#E6E6E6"/>
				<stop  offset="0.5878" style="stop-color:#C8DBD1"/>
				<stop  offset="0.7527" style="stop-color:#7BBF9B"/>
				<stop  offset="0.9944" style="stop-color:#009245"/>
			</linearGradient>
			<path fill="url(#SVGID_1_)" d="M85.298,316.956c0.417,1.949-0.28,2.919-2.086,2.919h-18.98c-0.834,0-1.636-0.277-2.398-0.833
				c-0.766-0.555-1.287-1.253-1.564-2.086l-15.225-51.102v54.021l-0.209-2.086c-0.28,1.394-1.184,2.086-2.712,2.086H23.56
				c-1.948,0-2.92-0.97-2.92-2.919V176.793c0-1.945,0.972-2.92,2.92-2.92h31.286c3.614,0,7.02,0.698,10.22,2.086
				c3.198,1.391,5.977,3.269,8.343,5.632c2.363,2.366,4.241,5.145,5.632,8.343c1.388,3.2,2.085,6.605,2.085,10.22v33.997
				c0,5.146-1.323,9.771-3.962,13.87c-2.643,4.104-6.121,7.268-10.429,9.491L85.298,316.956z M45.043,238.114h6.673
				c1.388,0,2.572-0.485,3.546-1.459c0.971-0.972,1.459-2.154,1.459-3.546v-31.911c0-1.388-0.489-2.572-1.459-3.546
				c-0.975-0.97-2.158-1.459-3.546-1.459h-6.673V238.114z"/>
			<linearGradient id="SVGID_2_" gradientUnits="userSpaceOnUse" x1="20.6396" y1="246.875" x2="477.4072" y2="246.875">
				<stop  offset="0" style="stop-color:#F15A24"/>
				<stop  offset="0.2332" style="stop-color:#EC9E83"/>
				<stop  offset="0.4241" style="stop-color:#E8D2CA"/>
				<stop  offset="0.5123" style="stop-color:#E6E6E6"/>
				<stop  offset="0.5878" style="stop-color:#C8DBD1"/>
				<stop  offset="0.7527" style="stop-color:#7BBF9B"/>
				<stop  offset="0.9944" style="stop-color:#009245"/>
			</linearGradient>
			<path fill="url(#SVGID_2_)" d="M157.462,295.056c0,3.617-0.698,7.023-2.085,10.219c-1.392,3.202-3.27,5.98-5.632,8.343
				c-2.366,2.367-5.145,4.245-8.343,5.634c-3.2,1.388-6.605,2.086-10.22,2.086h-7.926c-3.617,0-7.023-0.698-10.22-2.086
				c-3.201-1.389-5.98-3.267-8.343-5.634c-2.367-2.362-4.244-5.141-5.632-8.343c-1.391-3.195-2.085-6.602-2.085-10.219v-96.362
				c0-3.614,0.694-7.02,2.085-10.22c1.388-3.197,3.265-5.978,5.632-8.343c2.363-2.363,5.142-4.24,8.343-5.632
				c3.197-1.388,6.603-2.086,10.22-2.086h7.926c3.614,0,7.02,0.698,10.22,2.086c3.198,1.392,5.977,3.269,8.343,5.632
				c2.363,2.366,4.241,5.146,5.632,8.343c1.388,3.2,2.085,6.605,2.085,10.22V295.056z M133.059,199.737
				c0-1.388-0.489-2.572-1.459-3.545c-0.975-0.971-2.158-1.46-3.546-1.46h-1.668c-1.392,0-2.575,0.489-3.546,1.46
				c-0.975,0.974-1.459,2.157-1.459,3.545v94.276c0,1.392,0.485,2.574,1.459,3.546c0.972,0.974,2.154,1.459,3.546,1.459h1.668
				c1.388,0,2.572-0.485,3.546-1.459c0.971-0.972,1.459-2.154,1.459-3.546V199.737z"/>
			<linearGradient id="SVGID_3_" gradientUnits="userSpaceOnUse" x1="20.6396" y1="246.875" x2="477.4072" y2="246.875">
				<stop  offset="0" style="stop-color:#F15A24"/>
				<stop  offset="0.2332" style="stop-color:#EC9E83"/>
				<stop  offset="0.4241" style="stop-color:#E8D2CA"/>
				<stop  offset="0.5123" style="stop-color:#E6E6E6"/>
				<stop  offset="0.5878" style="stop-color:#C8DBD1"/>
				<stop  offset="0.7527" style="stop-color:#7BBF9B"/>
				<stop  offset="0.9944" style="stop-color:#009245"/>
			</linearGradient>
			<path fill="url(#SVGID_3_)" d="M173.937,254.384c-1.948,0-2.92-0.972-2.92-2.92v-15.852c0-1.946,0.972-2.92,2.92-2.92h43.801
				c1.946,0,2.92,0.974,2.92,2.92v15.852c0,1.948-0.974,2.92-2.92,2.92H173.937z"/>
			<linearGradient id="SVGID_4_" gradientUnits="userSpaceOnUse" x1="20.6396" y1="246.875" x2="477.4072" y2="246.875">
				<stop  offset="0" style="stop-color:#F15A24"/>
				<stop  offset="0.2332" style="stop-color:#EC9E83"/>
				<stop  offset="0.4241" style="stop-color:#E8D2CA"/>
				<stop  offset="0.5123" style="stop-color:#E6E6E6"/>
				<stop  offset="0.5878" style="stop-color:#C8DBD1"/>
				<stop  offset="0.7527" style="stop-color:#7BBF9B"/>
				<stop  offset="0.9944" style="stop-color:#009245"/>
			</linearGradient>
			<path fill="url(#SVGID_4_)" d="M317.642,176.793v140.163c0,1.949-0.976,2.919-2.918,2.919h-20.024
				c-1.949,0-2.919-0.97-2.919-2.919v-65.909l-13.768,53.813c-0.279,0.696-0.625,1.042-1.043,1.042
				c-0.417,0-0.766-0.346-1.043-1.042l-13.766-53.813v65.909c0,1.949-0.975,2.919-2.92,2.919h-20.023c-1.948,0-2.92-0.97-2.92-2.919
				V176.793c0-1.945,0.972-2.92,2.92-2.92h17.729c0.834,0,1.564,0.313,2.189,0.939c0.626,0.625,1.076,1.288,1.356,1.981
				l16.477,74.67l16.477-74.67c0.277-0.693,0.731-1.355,1.356-1.981c0.627-0.626,1.356-0.939,2.191-0.939h17.729
				C316.666,173.874,317.642,174.848,317.642,176.793z"/>
			<linearGradient id="SVGID_5_" gradientUnits="userSpaceOnUse" x1="20.6396" y1="246.875" x2="477.4072" y2="246.875">
				<stop  offset="0" style="stop-color:#F15A24"/>
				<stop  offset="0.2332" style="stop-color:#EC9E83"/>
				<stop  offset="0.4241" style="stop-color:#E8D2CA"/>
				<stop  offset="0.5123" style="stop-color:#E6E6E6"/>
				<stop  offset="0.5878" style="stop-color:#C8DBD1"/>
				<stop  offset="0.7527" style="stop-color:#7BBF9B"/>
				<stop  offset="0.9944" style="stop-color:#009245"/>
			</linearGradient>
			<path fill="url(#SVGID_5_)" d="M396.898,316.956c0.276,1.949-0.557,2.919-2.502,2.919h-18.979c-1.81,0-2.853-0.97-3.129-2.919
				l-1.67-22.525h-12.931l-1.67,22.525c-0.281,1.949-1.324,2.919-3.129,2.919H333.91c-1.949,0-2.782-0.97-2.503-2.919
				l15.643-140.163c0.277-1.945,1.388-2.92,3.339-2.92h27.53c1.947,0,3.058,0.975,3.336,2.92L396.898,316.956z M368.95,271.069
				l-3.962-56.523h-1.67l-3.964,56.523H368.95z"/>
			<linearGradient id="SVGID_6_" gradientUnits="userSpaceOnUse" x1="20.6396" y1="246.875" x2="477.4072" y2="246.875">
				<stop  offset="0" style="stop-color:#F15A24"/>
				<stop  offset="0.2332" style="stop-color:#EC9E83"/>
				<stop  offset="0.4241" style="stop-color:#E8D2CA"/>
				<stop  offset="0.5123" style="stop-color:#E6E6E6"/>
				<stop  offset="0.5878" style="stop-color:#C8DBD1"/>
				<stop  offset="0.7527" style="stop-color:#7BBF9B"/>
				<stop  offset="0.9944" style="stop-color:#009245"/>
			</linearGradient>
			<path fill="url(#SVGID_6_)" d="M477.407,176.793v140.163c0,1.949-0.976,2.919-2.921,2.919h-13.35
				c-0.835,0-1.636-0.277-2.399-0.833c-0.766-0.555-1.287-1.18-1.564-1.876l-22.108-69.04v68.83c0,1.949-0.974,2.919-2.921,2.919
				h-18.562c-1.949,0-2.919-0.97-2.919-2.919V176.793c0-1.945,0.97-2.92,2.919-2.92h13.768c0.833,0,1.631,0.28,2.396,0.834
				c0.765,0.557,1.286,1.183,1.564,1.877l21.69,66.952v-66.744c0-1.945,0.974-2.92,2.921-2.92h18.564
				C476.432,173.874,477.407,174.848,477.407,176.793z"/>
		</g>
	</g>
</g>
<g>
</g>
<g>
</g>
<g>
</g>
<g>
</g>
<g>
</g>
<g>
</g>
<g>
</g>
<g>
</g>
<g>
</g>
<g>
</g>
<g>
</g>
<g>
</g>
<g>
</g>
<g>
</g>
<g>
</g>
</svg>
